<svg width="683px" height="131.6px" xmlns="http://www.w3.org/2000/svg" viewBox="-91.5 9.200000000000003 683 131.6" style="background: rgba(0, 0, 0, 0);" preserveAspectRatio="xMidYMid"><defs><linearGradient id="editing-gradient-gradient" x1="0" x2="1" y1="0.5" y2="0.5" gradientUnits="objectBoundingBox"><stop offset="0" stop-color="#f0f"></stop><stop offset="1" stop-color="#0ff"></stop></linearGradient></defs><g><g transform="translate(4.61998176574707, 107.15499877929688)"><path d="M13.50-46.06L13.50 0L5.88 0L5.88-46.06L13.50-46.06ZM24.63-35.25L31.44-35.25L32.25-31.63L32.25 0L24.63 0L24.63-35.25ZM60.94-35.63L60.94-35.63L60.94-35.63Q63.06-35.63 64.94-34.78L64.94-34.78L64.94-34.78Q66.81-33.94 68.22-32.38L68.22-32.38L68.22-32.38Q69.63-30.81 70.41-28.66L70.41-28.66L70.41-28.66Q71.19-26.50 71.19-24L71.19-24L71.19 0L63.69 0L63.69-19.19L63.69-19.19Q63.69-21.31 63.66-23.22L63.66-23.22L63.66-23.22Q63.63-25.13 63.25-26.63L63.25-26.63L63.25-26.63Q62.88-28.13 62.03-28.97L62.03-28.97L62.03-28.97Q61.19-29.81 59.44-29.81L59.44-29.81L59.44-29.81Q59-29.81 57.56-29.63L57.56-29.63L57.56-29.63Q56.13-29.44 54.25-28.56L54.25-28.56L54.25-33.50L54.25-33.50Q55.94-34.50 57.69-35.06L57.69-35.06L57.69-35.06Q59.44-35.63 60.94-35.63ZM50.13-30.81L50.13-30.81L50.13-30.81Q50.88-29.69 51.22-28.41L51.22-28.41L51.22-28.41Q51.56-27.13 51.66-25.75L51.66-25.75L51.66-25.75Q51.75-24.38 51.72-22.91L51.72-22.91L51.72-22.91Q51.69-21.44 51.69-19.81L51.69-19.81L51.69 0L44.13 0L44.13-19.19L44.13-19.19Q44.13-21.31 44.13-23.22L44.13-23.22L44.13-23.22Q44.13-25.13 43.75-26.63L43.75-26.63L43.75-26.63Q43.38-28.13 42.50-28.97L42.50-28.97L42.50-28.97Q41.63-29.81 39.94-29.81L39.94-29.81L39.94-29.81Q39.19-29.81 37.72-29.53L37.72-29.53L37.72-29.53Q36.25-29.25 34.81-28.56L34.81-28.56L34.81-33.50L34.81-33.50Q36.31-34.38 38.03-34.94L38.03-34.94L38.03-34.94Q39.75-35.50 41.44-35.50L41.44-35.50L41.44-35.50Q44.31-35.50 46.28-34.31L46.28-34.31L46.28-34.31Q48.25-33.13 50.13-30.81ZM88.06-10.63L88.06-10.63L88.06-10.63Q88.06-7.81 89.22-6.44L89.22-6.44L89.22-6.44Q90.38-5.06 92.56-4.81L92.56-4.81L92.56 0.25L92.56 0.25Q92.31 0.31 91.75 0.31L91.75 0.31L91.75 0.31Q89.63 0.31 87.66-0.25L87.66-0.25L87.66-0.25Q85.69-0.81 84.19-2.06L84.19-2.06L84.19-2.06Q82.69-3.31 81.84-5.38L81.84-5.38L81.84-5.38Q81-7.44 81-10.44L81-10.44L81-10.44Q81-13.31 82.22-15.41L82.22-15.41L82.22-15.41Q83.44-17.50 85.34-18.84L85.34-18.84L85.34-18.84Q87.25-20.19 89.69-20.84L89.69-20.84L89.69-20.84Q92.13-21.50 94.63-21.50L94.63-21.50L97.38-21.50L97.38-17.06L96-17.06L96-17.06Q94.75-17.06 93.38-16.81L93.38-16.81L93.38-16.81Q92-16.56 90.81-15.88L90.81-15.88L90.81-15.88Q89.63-15.19 88.84-13.91L88.84-13.91L88.84-13.91Q88.06-12.63 88.06-10.63ZM107.50-10.94L107.50-10.44L107.50-10.44Q107.50-9.94 107.56-8.97L107.56-8.97L107.56-8.97Q107.63-8 107.81-7L107.81-7L107.81-7Q108-6 108.41-5.19L108.41-5.19L108.41-5.19Q108.81-4.38 109.50-4.13L109.50-4.13L107.50 0.06L107.50 0.06Q106.69 0.06 105.78-0.31L105.78-0.31L105.78-0.31Q104.88-0.69 104.03-1.38L104.03-1.38L104.03-1.38Q103.19-2.06 102.59-2.91L102.59-2.91L102.59-2.91Q102-3.75 101.69-4.75L101.69-4.75L101.69-4.75Q101.06-3.19 99.22-1.97L99.22-1.97L99.22-1.97Q97.38-0.75 95.13-0.19L95.13-0.19L95.13-4.94L95.13-4.94Q96.63-5.25 97.84-6.16L97.84-6.16L97.84-6.16Q99.06-7.06 99.94-8.31L99.94-8.31L99.94-21.50L99.94-21.50Q99.94-24.56 99.63-26.38L99.63-26.38L99.63-26.38Q99.31-28.19 98.56-29.03L98.56-29.03L98.56-29.03Q97.81-29.88 96.72-30.09L96.72-30.09L96.72-30.09Q95.63-30.31 94.13-30.31L94.13-30.31L94.13-30.31Q92.75-30.31 91.53-29.97L91.53-29.97L91.53-29.97Q90.31-29.63 89.28-29.16L89.28-29.16L89.28-29.16Q88.25-28.69 87.47-28.13L87.47-28.13L87.47-28.13Q86.69-27.56 86.31-27.25L86.31-27.25L83.50-31.56L83.50-31.56Q84.13-32.25 85.38-32.97L85.38-32.97L85.38-32.97Q86.63-33.69 88.25-34.25L88.25-34.25L88.25-34.25Q89.88-34.81 91.78-35.16L91.78-35.16L91.78-35.16Q93.69-35.50 95.75-35.50L95.75-35.50L95.75-35.50Q97.63-35.50 99.41-35.13L99.41-35.13L99.41-35.13Q101.19-34.75 102.66-33.88L102.66-33.88L102.66-33.88Q104.13-33 105.22-31.53L105.22-31.53L105.22-31.53Q106.31-30.06 106.75-27.88L106.75-27.88L106.75-27.88Q107.19-25.69 107.34-23.47L107.34-23.47L107.34-23.47Q107.50-21.25 107.50-19.06L107.50-19.06L107.50-10.94ZM132.25 0.31L132.25 0.31L132.25 0.31Q128.75 0.31 126.13-1.22L126.13-1.22L126.13-1.22Q123.50-2.75 121.75-5.31L121.75-5.31L121.75-5.31Q120-7.88 119.19-11.19L119.19-11.19L119.19-11.19Q118.38-14.50 118.38-18.13L118.38-18.13L118.38-18.13Q118.38-23 119.72-26.31L119.72-26.31L119.72-26.31Q121.06-29.63 123.16-31.72L123.16-31.72L123.16-31.72Q125.25-33.81 127.84-34.69L127.84-34.69L127.84-34.69Q130.44-35.56 132.94-35.56L132.94-35.56L132.94-35.56Q134.88-35.56 136.63-35.13L136.63-35.13L136.63-35.13Q138.38-34.69 139.81-33.88L139.81-33.88L139.81-27.25L139.81-27.25Q138.81-28.38 137.47-29.06L137.47-29.06L137.47-29.06Q136.13-29.75 134.56-29.75L134.56-29.75L134.56-29.75Q132.69-29.75 131.16-28.78L131.16-28.78L131.16-28.78Q129.63-27.81 128.56-26.19L128.56-26.19L128.56-26.19Q127.50-24.56 126.94-22.38L126.94-22.38L126.94-22.38Q126.38-20.19 126.38-17.75L126.38-17.75L126.38-17.75Q126.38-15.25 126.97-13.03L126.97-13.03L126.97-13.03Q127.56-10.81 128.66-9.19L128.66-9.19L128.66-9.19Q129.75-7.56 131.28-6.59L131.28-6.59L131.28-6.59Q132.81-5.63 134.69-5.63L134.69-5.63L134.69-5.63Q136.25-5.63 137.50-6.28L137.50-6.28L137.50-6.28Q138.75-6.94 139.81-8L139.81-8L139.81-1.50L139.81-1.50Q138.31-0.75 136.38-0.22L136.38-0.22L136.38-0.22Q134.44 0.31 132.25 0.31ZM143.19-35.25L149.94-35.25L149.88 0L149.88 0Q149.63 3.81 148.34 6.50L148.34 6.50L148.34 6.50Q147.06 9.19 145.06 10.94L145.06 10.94L145.06 10.94Q143.06 12.69 140.44 13.44L140.44 13.44L140.44 13.44Q137.81 14.19 134.81 14.19L134.81 14.19L134.81 14.19Q131.31 14.19 127.91 12.97L127.91 12.97L127.91 12.97Q124.50 11.75 122.25 8.88L122.25 8.88L126.63 4.56L126.63 4.56Q127.25 5.63 128.22 6.31L128.22 6.31L128.22 6.31Q129.19 7 130.22 7.38L130.22 7.38L130.22 7.38Q131.25 7.75 132.28 7.91L132.28 7.91L132.28 7.91Q133.31 8.06 134.13 8.06L134.13 8.06L134.13 8.06Q138 8.06 140.19 5.81L140.19 5.81L140.19 5.81Q142.38 3.56 142.38-1.88L142.38-1.88L142.38-31.69L143.19-35.25ZM178.50-29.69L178.50-35.56L178.50-35.56Q181.88-35.25 184.59-33.75L184.59-33.75L184.59-33.75Q187.31-32.25 189.25-29.88L189.25-29.88L189.25-29.88Q191.19-27.50 192.22-24.44L192.22-24.44L192.22-24.44Q193.25-21.38 193.25-18.06L193.25-18.06L193.25-18.06Q193.25-16.56 193.06-15.06L193.06-15.06L171.63-15.06L171.63-20.56L186.06-20.56L186.06-20.56Q186.06-22.19 185.53-23.69L185.53-23.69L185.53-23.69Q185-25.19 183.97-26.47L183.97-26.47L183.97-26.47Q182.94-27.75 181.56-28.63L181.56-28.63L181.56-28.63Q180.19-29.50 178.50-29.69L178.50-29.69ZM178.25-5.88L178.25-5.88L178.25-5.88Q178.94-5.88 179.97-6.03L179.97-6.03L179.97-6.03Q181-6.19 182.16-6.59L182.16-6.59L182.16-6.59Q183.31-7 184.47-7.63L184.47-7.63L184.47-7.63Q185.63-8.25 186.50-9.13L186.50-9.13L189.25-4.94L189.25-4.94Q187.19-2.38 184.44-1.06L184.44-1.06L184.44-1.06Q181.69 0.25 177.44 0.25L177.44 0.25L177.44 0.25Q174 0.25 171-1.16L171-1.16L171-1.16Q168-2.56 165.88-5L165.88-5L165.88-5Q163.75-7.44 162.50-10.69L162.50-10.69L162.50-10.69Q161.25-13.94 161.25-17.69L161.25-17.69L161.25-17.69Q161.25-21.25 162.41-24.44L162.41-24.44L162.41-24.44Q163.56-27.63 165.56-30.03L165.56-30.03L165.56-30.03Q167.56-32.44 170.22-33.94L170.22-33.94L170.22-33.94Q172.88-35.44 175.94-35.63L175.94-35.63L175.94-29.63L175.94-29.63Q173.63-29.19 172.13-27.75L172.13-27.75L172.13-27.75Q170.63-26.31 169.78-24.47L169.78-24.47L169.78-24.47Q168.94-22.63 168.59-20.69L168.59-20.69L168.59-20.69Q168.25-18.75 168.25-17.38L168.25-17.38L168.25-17.38Q168.25-14.94 168.84-12.84L168.84-12.84L168.84-12.84Q169.44-10.75 170.69-9.22L170.69-9.22L170.69-9.22Q171.94-7.69 173.78-6.78L173.78-6.78L173.78-6.78Q175.63-5.88 178.25-5.88ZM202.81-25.19L202.81-25.19L202.81-25.19Q202.81-27.56 203.69-29.47L203.69-29.47L203.69-29.47Q204.56-31.38 206.13-32.72L206.13-32.72L206.13-32.72Q207.69-34.06 209.66-34.84L209.66-34.84L209.66-34.84Q211.63-35.63 213.75-35.81L213.75-35.81L213.75-29.56L213.75-29.56Q212.13-29.25 211.22-28.25L211.22-28.25L211.22-28.25Q210.31-27.25 210.31-25.44L210.31-25.44L210.31-25.44Q210.31-23.94 211.28-23.03L211.28-23.03L211.28-23.03Q212.25-22.13 213.75-21.44L213.75-21.44L213.75-14.75L213.75-14.75Q212.69-15.06 211.59-15.47L211.59-15.47L211.59-15.47Q210.50-15.88 209.44-16.38L209.44-16.38L209.44-16.38Q206.13-18.13 204.47-20.06L204.47-20.06L204.47-20.06Q202.81-22 202.81-25.19ZM226.13-33L223.69-27.81L223.69-27.81Q222-28.69 220.09-29.13L220.09-29.13L220.09-29.13Q218.19-29.56 216.31-29.69L216.31-29.69L216.31-35.88L216.31-35.88Q219.13-35.75 221.50-35.09L221.50-35.09L221.50-35.09Q223.88-34.44 226.13-33L226.13-33ZM202.94-2.81L206.13-7.88L206.13-7.88Q207.38-7 209.09-6.25L209.09-6.25L209.09-6.25Q210.81-5.50 213.44-5.50L213.44-5.50L213.75-5.50L213.75 0.31L213.75 0.31Q212.19 0.31 210.88 0.22L210.88 0.22L210.88 0.22Q209.56 0.13 208.28-0.22L208.28-0.22L208.28-0.22Q207-0.56 205.69-1.19L205.69-1.19L205.69-1.19Q204.38-1.81 202.94-2.81L202.94-2.81ZM216.31-13.81L216.31-20.44L216.31-20.44Q218.19-19.81 220.13-19.06L220.13-19.06L220.13-19.06Q222.06-18.31 223.66-17.19L223.66-17.19L223.66-17.19Q225.25-16.06 226.28-14.41L226.28-14.41L226.28-14.41Q227.31-12.75 227.31-10.25L227.31-10.25L227.31-10.25Q227.31-7.81 226.44-6L226.44-6L226.44-6Q225.56-4.19 224.09-2.88L224.09-2.88L224.09-2.88Q222.63-1.56 220.63-0.81L220.63-0.81L220.63-0.81Q218.63-0.06 216.31 0.19L216.31 0.19L216.31-5.75L216.31-5.75Q218.44-6.13 219.59-7.09L219.59-7.09L219.59-7.09Q220.75-8.06 220.75-9.69L220.75-9.69L220.75-9.69Q220.75-11.31 219.47-12.22L219.47-12.22L219.47-12.22Q218.19-13.13 216.31-13.81L216.31-13.81ZM285.81-41.81L280.63-37.19L280.63-37.19Q279.13-39 277.19-39.81L277.19-39.81L277.19-39.81Q275.25-40.63 273.19-40.63L273.19-40.63L272.94-40.63L272.94-46.81L273-46.81L273-46.81Q276.75-46.81 280-45.56L280-45.56L280-45.56Q283.25-44.31 285.81-41.81L285.81-41.81ZM253.81-23.25L253.81-23.25L253.81-23.25Q253.81-28.63 255.06-32.78L255.06-32.78L255.06-32.78Q256.31-36.94 258.50-39.84L258.50-39.84L258.50-39.84Q260.69-42.75 263.75-44.44L263.75-44.44L263.75-44.44Q266.81-46.13 270.38-46.56L270.38-46.56L270.38-40.31L270.38-40.31Q268.50-39.81 266.91-38.63L266.91-38.63L266.91-38.63Q265.31-37.44 264.09-35.34L264.09-35.34L264.09-35.34Q262.88-33.25 262.19-30.28L262.19-30.28L262.19-30.28Q261.50-27.31 261.44-23.25L261.44-23.25L261.44-23.25Q261.50-19.19 262.19-16.13L262.19-16.13L262.19-16.13Q262.88-13.06 264.09-10.84L264.09-10.84L264.09-10.84Q265.31-8.63 266.91-7.31L266.91-7.31L266.91-7.31Q268.50-6 270.38-5.50L270.38-5.50L270.38 0.19L270.38 0.19Q266.81-0.25 263.75-1.97L263.75-1.97L263.75-1.97Q260.69-3.69 258.50-6.63L258.50-6.63L258.50-6.63Q256.31-9.56 255.06-13.72L255.06-13.72L255.06-13.72Q253.81-17.88 253.81-23.25ZM272.94-23.75L288.19-23.75L288.19-5.94L288.19-5.94Q286.75-4.13 284.97-2.97L284.97-2.97L284.97-2.97Q283.19-1.81 281.22-1.06L281.22-1.06L281.22-1.06Q279.25-0.31 277.16 0L277.16 0L277.16 0Q275.06 0.31 273 0.31L273 0.31L272.94 0.31L272.94-5.19L272.94-5.19Q273.69-5.19 274.78-5.28L274.78-5.28L274.78-5.28Q275.88-5.38 277.03-5.59L277.03-5.59L277.03-5.59Q278.19-5.81 279.22-6.19L279.22-6.19L279.22-6.19Q280.25-6.56 280.75-7.25L280.75-7.25L280.75-18.63L272.94-18.63L272.94-23.75ZM304.75-10.63L304.75-10.63L304.75-10.63Q304.75-7.81 305.91-6.44L305.91-6.44L305.91-6.44Q307.06-5.06 309.25-4.81L309.25-4.81L309.25 0.25L309.25 0.25Q309 0.31 308.44 0.31L308.44 0.31L308.44 0.31Q306.31 0.31 304.34-0.25L304.34-0.25L304.34-0.25Q302.38-0.81 300.88-2.06L300.88-2.06L300.88-2.06Q299.38-3.31 298.53-5.38L298.53-5.38L298.53-5.38Q297.69-7.44 297.69-10.44L297.69-10.44L297.69-10.44Q297.69-13.31 298.91-15.41L298.91-15.41L298.91-15.41Q300.13-17.50 302.03-18.84L302.03-18.84L302.03-18.84Q303.94-20.19 306.38-20.84L306.38-20.84L306.38-20.84Q308.81-21.50 311.31-21.50L311.31-21.50L314.06-21.50L314.06-17.06L312.69-17.06L312.69-17.06Q311.44-17.06 310.06-16.81L310.06-16.81L310.06-16.81Q308.69-16.56 307.50-15.88L307.50-15.88L307.50-15.88Q306.31-15.19 305.53-13.91L305.53-13.91L305.53-13.91Q304.75-12.63 304.75-10.63ZM324.19-10.94L324.19-10.44L324.19-10.44Q324.19-9.94 324.25-8.97L324.25-8.97L324.25-8.97Q324.31-8 324.50-7L324.50-7L324.50-7Q324.69-6 325.09-5.19L325.09-5.19L325.09-5.19Q325.50-4.38 326.19-4.13L326.19-4.13L324.19 0.06L324.19 0.06Q323.38 0.06 322.47-0.31L322.47-0.31L322.47-0.31Q321.56-0.69 320.72-1.38L320.72-1.38L320.72-1.38Q319.88-2.06 319.28-2.91L319.28-2.91L319.28-2.91Q318.69-3.75 318.38-4.75L318.38-4.75L318.38-4.75Q317.75-3.19 315.91-1.97L315.91-1.97L315.91-1.97Q314.06-0.75 311.81-0.19L311.81-0.19L311.81-4.94L311.81-4.94Q313.31-5.25 314.53-6.16L314.53-6.16L314.53-6.16Q315.75-7.06 316.63-8.31L316.63-8.31L316.63-21.50L316.63-21.50Q316.63-24.56 316.31-26.38L316.31-26.38L316.31-26.38Q316-28.19 315.25-29.03L315.25-29.03L315.25-29.03Q314.50-29.88 313.41-30.09L313.41-30.09L313.41-30.09Q312.31-30.31 310.81-30.31L310.81-30.31L310.81-30.31Q309.44-30.31 308.22-29.97L308.22-29.97L308.22-29.97Q307-29.63 305.97-29.16L305.97-29.16L305.97-29.16Q304.94-28.69 304.16-28.13L304.16-28.13L304.16-28.13Q303.38-27.56 303-27.25L303-27.25L300.19-31.56L300.19-31.56Q300.81-32.25 302.06-32.97L302.06-32.97L302.06-32.97Q303.31-33.69 304.94-34.25L304.94-34.25L304.94-34.25Q306.56-34.81 308.47-35.16L308.47-35.16L308.47-35.16Q310.38-35.50 312.44-35.50L312.44-35.50L312.44-35.50Q314.31-35.50 316.09-35.13L316.09-35.13L316.09-35.13Q317.88-34.75 319.34-33.88L319.34-33.88L319.34-33.88Q320.81-33 321.91-31.53L321.91-31.53L321.91-31.53Q323-30.06 323.44-27.88L323.44-27.88L323.44-27.88Q323.88-25.69 324.03-23.47L324.03-23.47L324.03-23.47Q324.19-21.25 324.19-19.06L324.19-19.06L324.19-10.94ZM343.63-48.56L343.63-10.75L343.63-10.75Q343.63-8.63 344.19-7.41L344.19-7.41L344.19-7.41Q344.75-6.19 345.75-5.59L345.75-5.59L345.75-5.59Q346.75-5 348.03-4.81L348.03-4.81L348.03-4.81Q349.31-4.63 350.81-4.63L350.81-4.63L350.81 0L350.81 0Q350 0.13 349.13 0.19L349.13 0.19L349.13 0.19Q348.44 0.25 347.50 0.28L347.50 0.28L347.50 0.28Q346.56 0.31 345.63 0.31L345.63 0.31L345.63 0.31Q344.69 0.31 343.75 0.25L343.75 0.25L343.75 0.25Q342.81 0.19 342.06 0.06L342.06 0.06L342.06 0.06Q339.94-0.38 338.75-1.81L338.75-1.81L338.75-1.81Q337.56-3.25 336.94-5.03L336.94-5.03L336.94-5.03Q336.31-6.81 336.16-8.50L336.16-8.50L336.16-8.50Q336-10.19 336-11.13L336-11.13L336-11.88L336-48.56L343.63-48.56ZM366.31-48.56L366.31-10.75L366.31-10.75Q366.31-8.63 366.88-7.41L366.88-7.41L366.88-7.41Q367.44-6.19 368.44-5.59L368.44-5.59L368.44-5.59Q369.44-5 370.72-4.81L370.72-4.81L370.72-4.81Q372-4.63 373.50-4.63L373.50-4.63L373.50 0L373.50 0Q372.69 0.13 371.81 0.19L371.81 0.19L371.81 0.19Q371.13 0.25 370.19 0.28L370.19 0.28L370.19 0.28Q369.25 0.31 368.31 0.31L368.31 0.31L368.31 0.31Q367.38 0.31 366.44 0.25L366.44 0.25L366.44 0.25Q365.50 0.19 364.75 0.06L364.75 0.06L364.75 0.06Q362.63-0.38 361.44-1.81L361.44-1.81L361.44-1.81Q360.25-3.25 359.63-5.03L359.63-5.03L359.63-5.03Q359-6.81 358.84-8.50L358.84-8.50L358.84-8.50Q358.69-10.19 358.69-11.13L358.69-11.13L358.69-11.88L358.69-48.56L366.31-48.56ZM397.88-29.69L397.88-35.56L397.88-35.56Q401.25-35.25 403.97-33.75L403.97-33.75L403.97-33.75Q406.69-32.25 408.63-29.88L408.63-29.88L408.63-29.88Q410.56-27.50 411.59-24.44L411.59-24.44L411.59-24.44Q412.63-21.38 412.63-18.06L412.63-18.06L412.63-18.06Q412.63-16.56 412.44-15.06L412.44-15.06L391-15.06L391-20.56L405.44-20.56L405.44-20.56Q405.44-22.19 404.91-23.69L404.91-23.69L404.91-23.69Q404.38-25.19 403.34-26.47L403.34-26.47L403.34-26.47Q402.31-27.75 400.94-28.63L400.94-28.63L400.94-28.63Q399.56-29.50 397.88-29.69L397.88-29.69ZM397.63-5.88L397.63-5.88L397.63-5.88Q398.31-5.88 399.34-6.03L399.34-6.03L399.34-6.03Q400.38-6.19 401.53-6.59L401.53-6.59L401.53-6.59Q402.69-7 403.84-7.63L403.84-7.63L403.84-7.63Q405-8.25 405.88-9.13L405.88-9.13L408.63-4.94L408.63-4.94Q406.56-2.38 403.81-1.06L403.81-1.06L403.81-1.06Q401.06 0.25 396.81 0.25L396.81 0.25L396.81 0.25Q393.38 0.25 390.38-1.16L390.38-1.16L390.38-1.16Q387.38-2.56 385.25-5L385.25-5L385.25-5Q383.13-7.44 381.88-10.69L381.88-10.69L381.88-10.69Q380.63-13.94 380.63-17.69L380.63-17.69L380.63-17.69Q380.63-21.25 381.78-24.44L381.78-24.44L381.78-24.44Q382.94-27.63 384.94-30.03L384.94-30.03L384.94-30.03Q386.94-32.44 389.59-33.94L389.59-33.94L389.59-33.94Q392.25-35.44 395.31-35.63L395.31-35.63L395.31-29.63L395.31-29.63Q393-29.19 391.50-27.75L391.50-27.75L391.50-27.75Q390-26.31 389.16-24.47L389.16-24.47L389.16-24.47Q388.31-22.63 387.97-20.69L387.97-20.69L387.97-20.69Q387.63-18.75 387.63-17.38L387.63-17.38L387.63-17.38Q387.63-14.94 388.22-12.84L388.22-12.84L388.22-12.84Q388.81-10.75 390.06-9.22L390.06-9.22L390.06-9.22Q391.31-7.69 393.16-6.78L393.16-6.78L393.16-6.78Q395-5.88 397.63-5.88ZM423-35.25L429.75-35.25L430.56-31.63L430.56-12.50L430.56-12.38L430.56 0L423 0L423-35.25ZM433.13-27.31L433.13-33.69L433.13-33.69Q434.69-34.56 436.88-35.03L436.88-35.03L436.88-35.03Q439.06-35.50 442.81-35.50L442.81-35.50L442.81-27.63L442.81-27.63Q441.06-28.13 438.56-28.19L438.56-28.19L438.56-28.19Q437.19-28.19 435.78-27.97L435.78-27.97L435.78-27.97Q434.38-27.75 433.13-27.31L433.13-27.31ZM477.25-35.25L484.88-35.25L484.88-35.25Q481.44-26.06 478.75-18.97L478.75-18.97L478.75-18.97Q476.06-11.88 474.06-6.53L474.06-6.53L474.06-6.53Q472.06-1.19 470.53 2.50L470.53 2.50L470.53 2.50Q469 6.19 467.72 8.66L467.72 8.66L467.72 8.66Q466.44 11.13 465.31 12.53L465.31 12.53L465.31 12.53Q464.19 13.94 463 14.69L463 14.69L463 14.69Q461.81 15.44 460.41 15.59L460.41 15.59L460.41 15.59Q459 15.75 457.19 15.75L457.19 15.75L457.19 15.75Q456.63 15.75 455.88 15.59L455.88 15.59L455.88 15.59Q455.13 15.44 454.41 15.22L454.41 15.22L454.41 15.22Q453.69 15 453.13 14.78L453.13 14.78L453.13 14.78Q452.56 14.56 452.38 14.50L452.38 14.50L452.38 14.50Q452.63 13.38 452.88 12.38L452.88 12.38L452.88 12.38Q453.06 11.50 453.28 10.72L453.28 10.72L453.28 10.72Q453.50 9.94 453.63 9.63L453.63 9.63L453.63 9.63Q454.13 9.63 455.16 9.94L455.16 9.94L455.16 9.94Q456.19 10.25 456.69 10.25L456.69 10.25L456.69 10.25Q457.69 10.25 458.47 10.16L458.47 10.16L458.47 10.16Q459.25 10.06 459.88 9.59L459.88 9.59L459.88 9.59Q460.50 9.13 461.06 8.22L461.06 8.22L461.06 8.22Q461.63 7.31 462.31 5.63L462.31 5.63L464.69 0L477.25-35.25ZM465.94-9.44L463.38-3.31L450.25-35.25L457.81-35.25L466.81-11.56L465.94-9.44Z" fill="url(#editing-gradient-gradient)"></path></g></g><style>text {
  font-size: 64px;
  font-family: Arial Black;
  dominant-baseline: central;
  text-anchor: middle;
}</style></svg>